<?xml version="1.0" encoding="UTF-8"?>
<svg xmlns="http://www.w3.org/2000/svg" viewBox="0 0 144 216" role="img" aria-label="wild wild_draw_four">
  <defs>
    <linearGradient id="shine" x1="0" y1="0" x2="1" y2="1">
      <stop offset="0%" stop-color="#ffffff" stop-opacity="0.24"/>
      <stop offset="60%" stop-color="#ffffff" stop-opacity="0"/>
    </linearGradient>
    <filter id="shadow" x="-20%" y="-20%" width="140%" height="140%">
      <feDropShadow dx="0" dy="6" stdDeviation="6" flood-color="#000000" flood-opacity="0.18"/>
    </filter>
  </defs>

  <rect x="6" y="6" width="132" height="204" rx="18" fill="#f8fafc"/>
  <rect x="12" y="12" width="120" height="192" rx="16" fill="#0f172a" filter="url(#shadow)"/>
  <rect x="12" y="12" width="120" height="192" rx="16" fill="url(#shine)"/>
  <ellipse cx="72" cy="108" rx="44" ry="66" fill="#ffffff" stroke="#111827" stroke-width="6" transform="rotate(-18 72 108)"/>
  
    <path d="M36 10 L72 10 L36 77 Z" fill="#ef4444" opacity="0.95"/>
    <path d="M72 10 L108 10 L108 77 Z" fill="#3b82f6" opacity="0.95"/>
    <path d="M36 77 L108 77 L72 144 Z" fill="#22c55e" opacity="0.95"/>
    <path d="M36 10 L36 144 L72 144 Z" fill="#facc15" opacity="0.95"/>
  
  <text x="72" y="126" text-anchor="middle" font-family="Arial Black, Arial, sans-serif" font-size="52" fill="#111827" stroke="rgba(255,255,255,0.72)" stroke-width="1.6" paint-order="stroke fill" dominant-baseline="middle">+4</text>
  <text x="72" y="166" text-anchor="middle" font-family="Arial, sans-serif" font-size="11" font-weight="700" letter-spacing="1.6" fill="#111827" opacity="0.96">WILD +4</text>
  <text x="26" y="34" text-anchor="middle" font-family="Arial Black, Arial, sans-serif" font-size="16" fill="#ffffff">+4</text>
  <text x="118" y="190" text-anchor="middle" font-family="Arial Black, Arial, sans-serif" font-size="16" fill="#ffffff" transform="rotate(180 118 190)">+4</text>
  <path d="M24 24 C42 16, 102 16, 120 24" fill="none" stroke="#0f172a" stroke-opacity="0.35" stroke-width="4"/>
</svg>
